<svg xmlns="http://www.w3.org/2000/svg" viewBox="0 0 270.98 158.3"><defs><style>.cls-1{font-size:18.8px;font-family:Roboto-Regular, Roboto;letter-spacing:0.06em;}.cls-1,.cls-6{fill:#666;}.cls-2{letter-spacing:0.05em;}.cls-3{letter-spacing:0.06em;}.cls-4{letter-spacing:0.05em;}.cls-5{letter-spacing:0.06em;}</style></defs><title>logo footer_1</title><g id="Layer_2" data-name="Layer 2"><g id="Layer_1-2" data-name="Layer 1"><text class="cls-1" transform="translate(82.02 153.21)">Fi<tspan class="cls-2" x="17.36" y="0">r</tspan><tspan class="cls-3" x="24.9" y="0">e up </tspan><tspan class="cls-4" x="71.09" y="0">y</tspan><tspan class="cls-5" x="81.53" y="0">our d</tspan><tspan class="cls-2" x="130.48" y="0">r</tspan><tspan x="138.01" y="0">eams</tspan></text><path class="cls-6" d="M83.71,127.5h3.71a6.87,6.87,0,0,0,6.87-6.87v-9.36L83.71,100.74Z"/><path class="cls-6" d="M136.94,63.59H124.57A6.41,6.41,0,0,0,120,65.46L94.3,91.13v0l-4.44,4.44,15,15,15.07,15a6.87,6.87,0,0,0,4.84,2h12.18l-32-32Z"/><path class="cls-6" d="M94.3,63.59H90.59a6.87,6.87,0,0,0-6.87,6.87v20L94.3,79.89Z"/><path class="cls-6" d="M160.86,63.59h2.34v57a6.87,6.87,0,0,1-6.87,6.87h-3.71V71.84A8.25,8.25,0,0,1,160.86,63.59Z"/><path class="cls-6" d="M266.7,63.59H269v55.66a8.25,8.25,0,0,1-8.25,8.25h-2.34V71.84A8.25,8.25,0,0,1,266.7,63.59Z"/><polygon class="cls-6" points="225.54 116.82 230.91 127.5 225.57 116.82 225.54 116.82"/><path class="cls-6" d="M210.83,63.59l-32,63.91h7.64a6.87,6.87,0,0,0,6.14-3.79l8.78-17.48,9.39-18.78,9.39,18.78,5.32,10.59h0L229,123.7a6.87,6.87,0,0,0,6.15,3.8h7.63Z"/><path class="cls-6" d="M83.72,0A23.4,23.4,0,0,0,64.29,36.45l0,0c1,1.2,4.36,7.67.61,13.57a13.21,13.21,0,0,1-10,6.08h0a14.67,14.67,0,0,0-4.2.82h0S44.3,60,38.56,56.39s-6-7.82-6.47-10.07h0A16.14,16.14,0,1,0,22.65,63.5l.1,0a12.5,12.5,0,0,1,11.47.07,13,13,0,0,1,6.71,9.08,14.74,14.74,0,1,0,28.43-6.93c-2.64-16.7,12.44-19,12.44-19h0c.63.05,1.27.08,1.92.08a23.4,23.4,0,0,0,0-46.8Z"/><circle class="cls-6" cx="19.06" cy="84.32" r="11.31"/></g></g></svg>