<svg xmlns="http://www.w3.org/2000/svg" xmlns:xlink="http://www.w3.org/1999/xlink" viewBox="0 0 118.47 56.14"><defs><style>.cls-1{fill:#f15a24;}.cls-2{fill:#fff;}.cls-3{fill:url(#linear-gradient);}</style><linearGradient id="linear-gradient" x1="47.17" y1="18.84" x2="0" y2="18.84" gradientUnits="userSpaceOnUse"><stop offset="0" stop-color="#c1272d"/><stop offset="0.59" stop-color="#f07f00"/><stop offset="0.99" stop-color="#fbb03b"/></linearGradient></defs><title>logo chinh 1</title><g id="Layer_2" data-name="Layer 2"><g id="Layer_1-2" data-name="Layer 1"><path class="cls-1" d="M36.86,56.14H38.5a3,3,0,0,0,3-3V49l-4.66-4.63Z"/><path class="cls-2" d="M60.3,28H54.85a2.82,2.82,0,0,0-2,.82L41.52,40.13h0l-2,2,6.6,6.6,6.64,6.59a3,3,0,0,0,2.13.88H60.3L46.23,42.07Z"/><path class="cls-1" d="M41.52,28H39.89a3,3,0,0,0-3,3v8.79l4.66-4.65Z"/><path class="cls-2" d="M70.83,28h1V53.12a3,3,0,0,1-3,3H67.2V31.63A3.63,3.63,0,0,1,70.83,28Z"/><path class="cls-2" d="M117.44,28h1V52.51a3.63,3.63,0,0,1-3.63,3.63h-1V31.63A3.63,3.63,0,0,1,117.44,28Z"/><polygon class="cls-2" points="99.31 51.44 101.67 56.14 99.32 51.44 99.31 51.44"/><path class="cls-2" d="M92.83,28,78.76,56.14h3.36a3,3,0,0,0,2.71-1.67l3.87-7.7,4.14-8.27L97,46.78l2.34,4.66h0l1.52,3a3,3,0,0,0,2.71,1.67h3.36Z"/><path class="cls-3" d="M36.86,0a10.31,10.31,0,0,0-8.55,16.05h0a5.6,5.6,0,0,1,.27,6,5.82,5.82,0,0,1-4.42,2.68h0a6.46,6.46,0,0,0-1.85.36h0A5.91,5.91,0,0,1,17,24.83a5.71,5.71,0,0,1-2.85-4.43h0A7.11,7.11,0,1,0,10,28h0a5.51,5.51,0,0,1,5,0,5.74,5.74,0,0,1,3,4,6.49,6.49,0,1,0,12.52-3.05C29.38,21.59,36,20.57,36,20.57h0c.28,0,.56,0,.84,0A10.3,10.3,0,0,0,36.86,0Z"/><circle class="cls-1" cx="8.39" cy="37.13" r="4.98"/></g></g></svg>