<svg id="Layer_1" data-name="Layer 1" xmlns="http://www.w3.org/2000/svg" viewBox="0 0 350 250"><defs><style>.cls-1{font-size:27.98px;font-family:MyriadPro-Regular, Myriad Pro;}.cls-1,.cls-7{fill:#ffce00;}.cls-2{letter-spacing:0.01em;}.cls-3{letter-spacing:-0.01em;}.cls-4{letter-spacing:0.03em;}.cls-5{letter-spacing:0.01em;}.cls-6{letter-spacing:0em;}</style></defs><title>logoskills</title><text class="cls-1" transform="translate(144.12 140.71)">Obje<tspan class="cls-2" x="56.02" y="0">c</tspan><tspan x="68.91" y="0">ti</tspan><tspan class="cls-3" x="84.72" y="0">v</tspan><tspan class="cls-4" x="97.9" y="0">e</tspan><tspan class="cls-5" x="112.7" y="0">-</tspan><tspan class="cls-6" x="121.68" y="0">C</tspan></text><path id="_Path_" data-name="&lt;Path&gt;" class="cls-7" d="M118.16,127.28c-.1-9.34,7.61-13.84,8-14.06a17.27,17.27,0,0,0-13.51-7.3c-5.75-.57-11.21,3.4-14.13,3.4S91.06,106,86.3,106.13A18.07,18.07,0,0,0,71,115.4c-6.49,11.31-1.63,28,4.73,37.19,3.11,4.48,6.81,9.51,11.66,9.32,4.68-.19,6.44-3,12.09-3s7.25,3,12.19,2.91,8.21-4.58,11.28-9.08a40.7,40.7,0,0,0,5.1-10.51,16.31,16.31,0,0,1-9.93-14.92"/><path id="_Path_2" data-name="&lt;Path&gt;" class="cls-7" d="M108.88,99.87a16.25,16.25,0,0,0,3.84-11.79,16.56,16.56,0,0,0-10.87,5.59c-2.39,2.76-4.48,7.18-3.91,11.42,4.14.32,8.37-2.11,10.95-5.23"/></svg>