<?xml version="1.0" encoding="UTF-8"?>
<svg viewBox="0 0 44 44" version="1.1" xmlns="http://www.w3.org/2000/svg" xmlns:xlink="http://www.w3.org/1999/xlink">
    <!-- Generator: Sketch 49.2 (51160) - http://www.bohemiancoding.com/sketch -->
    <title>Skype</title>
    <desc>Created with Sketch.</desc>
    <defs></defs>
    <g id="Page-1" stroke="none" stroke-width="1" fill="none" fill-rule="evenodd">
        <g id="Social-Icons---Isolated" transform="translate(-502.000000, -281.000000)" fill="#03ACEB">
            <path d="M524.204597,288.363546 C530.826022,288.753244 534.70372,291.678887 535.081067,294.41065 C535.265397,296.196281 534.083172,297.584459 532.032374,297.584459 C529.037726,297.584459 528.731795,293.57406 523.575364,293.57406 C521.248552,293.57406 519.284611,294.545396 519.284611,296.652867 C519.284611,301.056842 535.809703,298.498601 535.809703,308.194518 C535.809703,313.784067 531.355852,317.445482 524.707405,317.445482 C518.860941,317.445482 512.983594,314.783516 513.013511,310.199233 C513.023162,308.815903 514.050974,307.546961 515.417529,307.546961 C518.860941,307.546961 518.829093,312.685739 524.311721,312.685739 C528.157572,312.685739 529.471048,310.578268 529.471048,309.108661 C529.471048,303.804116 512.847517,307.056445 512.847517,297.078433 C512.847517,291.678887 517.264696,287.95446 524.204597,288.363546 M503.453413,303.015995 C503.453413,314.404481 512.643885,323.638965 523.983594,323.638965 C525.299965,323.638965 526.585454,323.510035 527.831374,323.271564 C529.637042,324.367953 531.753466,325 534.019477,325 C540.635111,324.998061 546,319.609178 546,312.962017 C546,310.631585 545.337954,308.458195 544.198193,306.613431 C544.401825,305.445306 544.514739,304.243253 544.514739,303.015995 C544.514739,291.62557 535.322337,282.393994 523.983594,282.393994 C522.69328,282.393994 521.429988,282.519046 520.203369,282.747824 C518.389981,281.638833 516.260046,281 513.982453,281 C507.364889,281 502,286.388883 502,293.036044 C502,295.353874 502.654325,297.515632 503.783471,299.352641 C503.570188,300.542092 503.453413,301.764502 503.453413,303.015995" id="Skype"></path>
        </g>
    </g>
</svg>